<svg viewBox="15 15 128 127" fill="none" xmlns="http://www.w3.org/2000/svg">
	<rect width="157" height="157" rx="30" fill="url(#paint0_linear)" />
	<path
		d="M97.6241 71.902C97.4524 71.9022 97.2838 71.8559 97.1363 71.768C96.9888 71.6802 96.8678 71.554 96.7863 71.403L89.0365 57.672C88.9608 57.5617 88.909 57.4368 88.8841 57.3055C88.8592 57.1741 88.8619 57.039 88.892 56.9087C88.9222 56.7784 88.9791 56.6558 89.0591 56.5486C89.1391 56.4414 89.2405 56.352 89.3569 56.286C89.4734 56.22 89.6022 56.1789 89.7354 56.1652C89.8685 56.1516 90.0031 56.1658 90.1304 56.2068C90.2578 56.2478 90.3753 56.3147 90.4754 56.4035C90.5755 56.4922 90.6562 56.6007 90.7121 56.7222L98.4619 70.4693C98.5245 70.579 98.5645 70.7 98.5797 70.8253C98.5949 70.9505 98.585 71.0776 98.5505 71.199C98.516 71.3204 98.4576 71.4337 98.3788 71.5323C98.2999 71.6309 98.2022 71.7128 98.0913 71.7732C97.9521 71.8621 97.7893 71.907 97.6241 71.902ZM112.076 87.9188L99.4126 109.022C99.3844 109.082 99.3462 109.137 99.2997 109.183L80.2394 139.543C80.1527 139.683 80.0317 139.798 79.8879 139.878C79.7441 139.958 79.5823 140 79.4177 140C79.2531 140 79.0913 139.958 78.9475 139.878C78.8037 139.798 78.6827 139.683 78.596 139.543L46.4528 88.3374C44.8837 85.846 44.0352 82.9695 44.0011 80.0262C43.9669 77.0829 44.7486 74.1875 46.2594 71.6605L78.5799 17.477C78.6772 17.3113 78.8217 17.1784 78.995 17.0952C79.1683 17.0121 79.3625 16.9824 79.5528 17.0101C79.743 17.0377 79.9207 17.1214 80.0631 17.2504C80.2055 17.3795 80.3061 17.548 80.3522 17.7345L112.254 71.6122C113.733 74.082 114.499 76.9126 114.468 79.7905C114.437 82.6685 113.609 85.4817 112.076 87.9188ZM86.2491 89.0135L92.2105 79.2263C92.6082 78.578 92.828 77.8364 92.8478 77.0763C92.8676 76.3162 92.6867 75.5642 92.3233 74.8961L80.3844 54.8549V61.0202L87.4736 73.3991C87.9731 74.2704 88.2319 75.2588 88.2234 76.2629C88.2149 77.267 87.9394 78.2508 87.4253 79.1136L85.8141 81.8019C85.7284 81.9469 85.6057 82.0666 85.4585 82.1486C85.3112 82.2306 85.1448 82.2721 84.9763 82.2687C84.806 82.274 84.638 82.2292 84.4929 82.1399C84.3826 82.0768 84.286 81.9921 84.209 81.891C84.132 81.79 84.076 81.6745 84.0445 81.5514C84.0129 81.4283 84.0064 81.3001 84.0253 81.1745C84.0442 81.0489 84.0882 80.9283 84.1546 80.8199L85.7658 78.1156C86.1033 77.5493 86.2842 76.9036 86.2899 76.2446C86.2956 75.5855 86.1258 74.9368 85.798 74.3649L80.3844 64.9158V74.6064C80.3786 78.4482 81.5479 82.2 83.7357 85.3594L86.2491 89.0135ZM97.3824 108.604L82.1406 86.454C79.73 82.9732 78.4426 78.8391 78.451 74.6064V21.4852L47.919 72.6586C46.5903 74.878 45.9035 77.422 45.9348 80.0079C45.9661 82.5938 46.7143 85.1204 48.0962 87.3071L79.4177 137.209L97.3824 108.604ZM110.594 72.6103L80.3844 21.5818V26.9744L99.1064 59.99C99.1699 60.0999 99.2112 60.2212 99.2278 60.3471C99.2444 60.4729 99.2359 60.6008 99.203 60.7234C99.1701 60.846 99.1133 60.9609 99.0359 61.0615C98.9585 61.1622 98.862 61.2466 98.7519 61.31C98.6031 61.3901 98.4376 61.4342 98.2686 61.4387C98.0988 61.4389 97.932 61.3943 97.7849 61.3095C97.6378 61.2247 97.5157 61.1027 97.4308 60.9558L80.3844 30.886V38.7737L88.827 53.1969C88.8934 53.3053 88.9374 53.4258 88.9563 53.5515C88.9752 53.6771 88.9687 53.8053 88.9372 53.9284C88.9056 54.0514 88.8496 54.167 88.7726 54.268C88.6956 54.3691 88.599 54.4538 88.4887 54.5169C88.3429 54.6045 88.1754 54.6491 88.0053 54.6457C87.8368 54.6491 87.6704 54.6076 87.5232 54.5256C87.3759 54.4436 87.2532 54.3239 87.1675 54.1789L80.3844 42.5888V51.1204L93.9828 73.9142V73.9464C94.5107 74.9168 94.7751 76.0085 94.7496 77.1127C94.7242 78.2169 94.4098 79.2952 93.8378 80.2404L87.4092 90.7681L90.2932 94.9373L99.1547 80.498C99.7025 79.5965 100.492 77.8419 99.5253 76.2L98.7358 74.8317C98.6723 74.7218 98.631 74.6005 98.6145 74.4746C98.5979 74.3488 98.6063 74.2209 98.6392 74.0983C98.6721 73.9757 98.7289 73.8608 98.8063 73.7602C98.8837 73.6595 98.9802 73.5751 99.0903 73.5117C99.3134 73.3878 99.5761 73.3554 99.8227 73.4215C100.069 73.4876 100.28 73.647 100.411 73.8659L101.201 75.218C102.264 77.0692 102.135 79.3551 100.798 81.5121L91.4855 96.6758L94.4501 100.974L105.696 82.8321C106.339 81.7901 106.688 80.5943 106.708 79.3705C106.728 78.1468 106.417 76.9403 105.809 75.878L99.5253 64.9641C99.3971 64.7421 99.3624 64.4783 99.4289 64.2307C99.4954 63.9832 99.6576 63.7721 99.8798 63.6441C100.102 63.516 100.366 63.4813 100.614 63.5478C100.862 63.6142 101.073 63.7762 101.201 63.9982L107.485 74.9122C108.265 76.2772 108.664 77.8271 108.638 79.3991C108.613 80.9711 108.164 82.5072 107.34 83.8462L95.6423 102.712L98.4619 106.817L110.385 86.9047C110.401 86.9047 110.401 86.9047 110.401 86.8886C111.749 84.7585 112.481 82.2969 112.515 79.7767C112.549 77.2565 111.884 74.7761 110.594 72.6103Z"
		fill="white"
	/>
	<defs>
		<linearGradient
			id="paint0_linear"
			x1="64.5607"
			y1="24.0306"
			x2="43.0936"
			y2="190.881"
			gradientUnits="userSpaceOnUse"
		>
			<stop offset="0.111821" stop-color="#04D2CA" />
			<stop offset="0.816463" stop-color="#6A49E4" />
		</linearGradient>
	</defs>
</svg>